# xmcd
#
# Track frame offsets: 
#        150
#        7005
#        22424
#        40257
#        59283
#        69970
#        82375
#        103935
#        126719
#        140419
#        158188
#        178633
#        191400
#
# Disc length: 2658 seconds
#
# Revision: 1
# Processed by: cddbd v1.5.2PL0 Copyright (c) Steve Scherf et al.
# Submitted via: ExactAudioCopy v0.95b4
#
DISCID=c20a600d
DTITLE=Linda Thompson - Versatile Heart
DYEAR=2007
DGENRE=Country
TTITLE0=Stay Bright
TTITLE1=Versatile Heart
TTITLE2=The Way I Love You
TTITLE3=Beauty
TTITLE4=Katy Cruel
TTITLE5=Nice Cars
TTITLE6=Do Your Best for Rock 'n Roll
TTITLE7=Day After Tomorrow
TTITLE8=Blue and Gold
TTITLE9=Give Me a Sad Song
TTITLE10=Go Home
TTITLE11=Whiskey, Bob Copper and Me
TTITLE12=Stay Bright (instr.)
EXTD=
EXTT0=
EXTT1=
EXTT2=
EXTT3=
EXTT4=
EXTT5=
EXTT6=
EXTT7=
EXTT8=
EXTT9=
EXTT10=
EXTT11=
EXTT12=
PLAYORDER=
